<?xml version="1.0" encoding="UTF-8"?>
<svg width="280px" height="280px" viewBox="0 0 280 280" version="1.1" xmlns="http://www.w3.org/2000/svg" xmlns:xlink="http://www.w3.org/1999/xlink">
    <!-- Generator: Sketch 51.2 (57519) - http://www.bohemiancoding.com/sketch -->
    <title>Plugin Icon</title>
    <desc>Created with Sketch.</desc>
    <defs>
        <linearGradient x1="50%" y1="0%" x2="50%" y2="100%" id="linearGradient-1">
            <stop stop-color="#386EE8" offset="0%"></stop>
            <stop stop-color="#4525AA" offset="100%"></stop>
        </linearGradient>
    </defs>
    <g id="Plugin-Icon" stroke="none" stroke-width="1" fill="none" fill-rule="evenodd">
        <circle id="Oval-2" fill="url(#linearGradient-1)" fill-rule="nonzero" cx="140" cy="140" r="140"></circle>
        <path d="M99.3564357,96.6831684 C99.3564357,89.6534654 93.7128713,84.0099011 86.6831684,84.0099011 C79.6534654,84.0099011 74.0099011,89.6534654 74.0099011,96.6831684 C74.0099011,103.712871 79.6534654,109.356436 86.6831684,109.356436 C93.7128713,109.356436 99.3564357,103.712871 99.3564357,96.6831684 Z M205,153.712871 C205,157.079208 203.613861,160.346535 201.336634,162.623762 L152.722772,211.336634 C150.346535,213.613861 147.079208,215 143.712871,215 C140.346535,215 137.079208,213.613861 134.80198,211.336634 L64.009901,140.445545 C58.960396,135.495049 55,125.891089 55,118.861386 L55,77.6732673 C55,70.7425743 60.7425743,65 67.6732673,65 L108.861386,65 C115.891089,65 125.495049,68.9603961 130.544554,74.009901 L201.336634,144.70297 C203.613861,147.079208 205,150.346535 205,153.712871 Z M243.019802,153.712871 C243.019802,157.079208 241.633663,160.346535 239.356436,162.623762 L190.742574,211.336634 C188.366337,213.613861 185.09901,215 181.732673,215 C176.584158,215 174.009901,212.623762 170.643564,209.158416 L217.178218,162.623762 C219.455445,160.346535 220.841584,157.079208 220.841584,153.712871 C220.841584,150.346535 219.455445,147.079208 217.178218,144.70297 L146.386139,74.009901 C141.336634,68.9603961 131.732673,65 124.70297,65 L146.881188,65 C153.910891,65 163.514851,68.9603961 168.564357,74.009901 L239.356436,144.70297 C241.633663,147.079208 243.019802,150.346535 243.019802,153.712871 Z" id="Shape" fill="#FFFFFF" fill-rule="nonzero"></path>
    </g>
</svg>