<?xml version="1.0" encoding="UTF-8"?>
<svg xmlns="http://www.w3.org/2000/svg" width="344" height="345" viewBox="0 0 344 345">
    <g fill="none" fill-rule="evenodd">
        <path fill="#55F" d="M73.013407,2.6866064 C106.18824,0.895535467 139.183771,-3.78753344e-15 172,0 C204.832174,0 237.664282,0.896405919 270.496323,2.68921776 L270.496323,2.68921771 C308.699378,4.77531668 339.208201,35.2833237 341.295323,73.4863222 C343.098441,106.490881 344,139.495441 344,172.5 C344,205.511425 343.098066,238.52285 341.294197,271.534276 L341.294197,271.534275 C339.20649,309.740047 308.693155,340.248892 270.487077,342.330977 C237.836179,344.110326 205.007154,345 172,345 C139.007428,345 106.01479,344.111111 73.0220864,342.333334 L73.0220864,342.333335 C34.4742283,340.256224 3.79947595,309.257162 2.12787429,270.689591 C0.709291429,237.959727 1.89395185e-15,205.229864 0,172.5 C0,139.776865 0.708999838,107.053729 2.12699951,74.3305938 L2.12699924,74.3305938 C3.79813889,35.7657548 34.4685114,4.76760084 73.013407,2.6866064 Z"></path>
        <path fill="#040432" fill-rule="nonzero" d="M286.906215,81.9802805 C277.476288,67.9775163 211.925768,69.8069678 195.200637,70.4388147 C176.174389,71.1587795 77.6883726,161.902379 65.245253,189.543418 C60.2310568,200.681344 133.598837,290.650905 148.427527,284.719457 C176.695942,273.411304 276.444493,186.487323 283.77916,168.543778 C288.547033,156.879648 293.298316,91.4719997 286.906215,81.9802805 Z M213.911492,179.640088 C209.792122,193.953554 159.477229,233.019104 152.225497,237.459909 C142.663076,243.314844 106.056238,199.824645 109.1896,191.162653 C110.745901,186.859677 153.157477,140.879477 172.57497,135.16439 C182.962565,132.106415 215.926779,172.638097 213.911492,179.640088 Z M255.252362,128.948771 C250.147008,137.498572 237.606212,139.667821 229.660208,133.375708 C221.662357,127.042853 219.798133,117.3811 224.67745,108.90682 C229.560599,100.425584 241.42865,98.6150606 249.865548,104.214565 C258.386475,109.87071 260.267046,120.550509 255.252362,128.948771 Z" transform="matrix(-1 0 0 1 355 0)"></path>
    </g>
</svg>
