<svg xmlns="http://www.w3.org/2000/svg" width="225" height="215" viewBox="0 0 225 215">
  <path fill="#000" d="M286.906215,81.9802805 C277.476288,67.9775163 211.925768,69.8069678 195.200637,70.4388147 C176.174389,71.1587795 77.6883726,161.902379 65.245253,189.543418 C60.2310568,200.681344 133.598837,290.650905 148.427527,284.719457 C176.695942,273.411304 276.444493,186.487323 283.77916,168.543778 C288.547033,156.879648 293.298316,91.4719997 286.906215,81.9802805 Z M213.911492,179.640088 C209.792122,193.953554 159.477229,233.019104 152.225497,237.459909 C142.663076,243.314844 106.056238,199.824645 109.1896,191.162653 C110.745901,186.859677 153.157477,140.879477 172.57497,135.16439 C182.962565,132.106415 215.926779,172.638097 213.911492,179.640088 Z M255.252362,128.948771 C250.147008,137.498572 237.606212,139.667821 229.660208,133.375708 C221.662357,127.042853 219.798133,117.3811 224.67745,108.90682 C229.560599,100.425584 241.42865,98.6150606 249.865548,104.214565 C258.386475,109.87071 260.267046,120.550509 255.252362,128.948771 Z" transform="matrix(-1 0 0 1 290 -70)"/>
</svg>
